# xmcd CD database file
#
# Track frame offsets:
#	150
#	17457
#	30752
#	51565
#	71265
#	89675
#	107240
#	123045
#	140252
#	161892
#	178575
#	194915
#
# Disc length: 2798 seconds
#
# Revision: 5
# Processed by: cddbd v1.5.2PL0 Copyright (c) Steve Scherf et al.
# Submitted via: CDex 1.70beta2
#
DISCID=a20aec0c
DTITLE=費玉清 - 何日君再來
DYEAR=2003
DGENRE=Blues
TTITLE0=原鄉人
TTITLE1=何日君再來
TTITLE2=再見我的愛人
TTITLE3=我心深處
TTITLE4=奈何
TTITLE5=償還
TTITLE6=我怎能離開你
TTITLE7=小村之戀
TTITLE8=月亮代表我的心
TTITLE9=千言萬語
TTITLE10=小城故事
TTITLE11=夜來香
EXTD=YEAR: 2003
EXTT0=
EXTT1=
EXTT2=
EXTT3=
EXTT4=
EXTT5=
EXTT6=
EXTT7=
EXTT8=
EXTT9=
EXTT10=
EXTT11=
PLAYORDER=
